<?xml version="1.0" encoding="UTF-8" standalone="no"?>
<!-- Created with Inkscape (http://www.inkscape.org/) -->

<svg
   version="1.1"
   id="svg64"
   width="628"
   height="698"
   viewBox="0 0 628.00002 697.99996"
   sodipodi:docname="Kenvyrarework.svg"
   inkscape:version="1.2.2 (b0a8486541, 2022-12-01)"
   inkscape:export-filename="/home/eva/logobot/IdleWork/logo/Kenvyrarework.png"
   inkscape:export-xdpi="1000"
   inkscape:export-ydpi="1000"
   xmlns:inkscape="http://www.inkscape.org/namespaces/inkscape"
   xmlns:sodipodi="http://sodipodi.sourceforge.net/DTD/sodipodi-0.dtd"
   xmlns="http://www.w3.org/2000/svg"
   xmlns:svg="http://www.w3.org/2000/svg"
   xmlns:rdf="http://www.w3.org/1999/02/22-rdf-syntax-ns#"
   xmlns:cc="http://creativecommons.org/ns#"
   xmlns:dc="http://purl.org/dc/elements/1.1/">
  <metadata
     id="metadata70">
    <rdf:RDF>
      <cc:Work
         rdf:about="">
        <dc:format>image/svg+xml</dc:format>
        <dc:type
           rdf:resource="http://purl.org/dc/dcmitype/StillImage" />
      </cc:Work>
    </rdf:RDF>
  </metadata>
  <defs
     id="defs68" />
  <sodipodi:namedview
     pagecolor="#ffffff"
     bordercolor="#666666"
     borderopacity="1"
     objecttolerance="10"
     gridtolerance="10"
     guidetolerance="10"
     inkscape:pageopacity="0"
     inkscape:pageshadow="2"
     inkscape:window-width="1920"
     inkscape:window-height="1026"
     id="namedview66"
     showgrid="false"
     inkscape:zoom="1"
     inkscape:cx="338"
     inkscape:cy="382.5"
     inkscape:window-x="0"
     inkscape:window-y="0"
     inkscape:window-maximized="1"
     inkscape:current-layer="svg64"
     inkscape:pagecheckerboard="0"
     inkscape:showpageshadow="2"
     inkscape:deskcolor="#d1d1d1" />
  <path
     style="fill:#000000;stroke-width:0.91885;image-rendering:auto"
     d="m 610.77619,364.49607 c 1.37322,-6.13493 2.96128,-20.59007 0.42152,-21.23224 -1.90311,-0.48119 -5.30785,9.95275 -6.36872,15.57386 -1.1933,6.32263 -3.99763,20.14816 -1.60311,21.70699 3.63084,2.36369 6.42914,-11.11211 7.55031,-16.04861 z M 356.82566,298.52879 c 41.10025,45.74129 83.15102,133.53047 85.69837,216.57162 0.97097,31.65239 -3.96316,61.47789 -13.92491,88.66908 -2.21593,4.59425 -2.21593,4.59425 -1.74894,-4.13482 3.31621,-39.01649 3.41572,-73.19956 -5.04233,-113.39859 -15.87457,-75.44789 -45.08302,-134.66229 -94.46823,-197.91066 -18.84897,57.82369 -58.57143,113.9806 -93.84619,163.71412 -23.30354,32.99242 -86.36975,91.46423 -112.06093,109.53913 -20.96853,14.75229 73.71618,-87.92213 95.50786,-119.95594 42.29325,-62.17121 67.05203,-91.55204 86.00556,-158.75067 5.14448,-18.23946 8.96315,-34.93953 9.84981,-54.56194 4.2654,-40.34006 18.4796,-84.89701 37.8208,-112.63789 31.09423,-44.01118 80.6311,-72.41425 134.58352,-82.50877 -44.34001,21.21719 -86.12573,44.92391 -116.14832,93.90561 -25.34429,41.3491 -46.49768,100.48528 -21.65622,139.56881 11.86643,18.66968 67.08397,56.85066 89.76767,71.83209 40.4034,26.6844 60.42271,41.41377 76.73754,68.46966 8.08929,13.41496 21.27215,44.23879 26.49208,78.81763 2.9123,19.29197 2.36195,26.71454 2.0276,35.63609 -0.90891,24.25095 -3.42281,27.85706 -7.9766,51.74343 -1.53419,8.0474 -2.35269,9.85926 -2.4873,2.71612 -0.26974,-14.31427 0.23333,-43.97382 -0.54631,-57.40044 -2.32304,-40.00486 -9.29907,-75.44352 -31.84649,-111.51513 -11.87695,-18.85875 -44.71209,-44.41187 -55.11587,-50.38694 -32.03729,-18.39959 -55.67794,-37.24894 -87.62217,-58.0216 z m 5.56331,-272.40007 c 10.21212,-0.59398 13.70459,-0.21263 0.40969,2.7086 -46.77718,10.13155 -95.89021,24.85445 -119.21701,74.44051 -20.64573,43.88689 -13.35486,85.82152 3.47437,129.40761 10.63455,26.77569 28.48446,48.28797 60.85073,75.87778 32.32122,27.55141 60.27715,53.09408 87.43712,69.56687 27.15998,16.47279 42.67268,27.1894 63.77303,41.25558 28.67057,19.11274 46.59737,33.0462 70.15953,49.93436 17.12117,12.27161 37.48364,34.48628 46.3809,57.68805 -4.69289,-60.09113 -24.9073,-89.62282 -35.04338,-107.92752 -28.1848,-50.899 -70.38286,-79.4659 -104.48723,-99.17371 22.42574,40.55842 28.03475,56.10899 39.04872,114.75418 5.6275,29.96432 -2.61448,53.82642 -5.07851,61.40274 -4.02681,12.38152 -5.62298,14.96482 -5.2013,9.6713 2.03651,-25.56481 3.47929,-44.75624 -2.63774,-74.56975 -7.04424,-34.33252 -20.21998,-63.59569 -33.42643,-87.21626 -21.61274,-38.65573 -36.5929,-45.92526 -60.96061,-69.26938 -4.75492,0.94514 -10.15805,2.0863 -40.35568,8.39023 -28.0916,5.86428 -49.38002,15.21528 -49.06729,13.87859 0.43496,-1.85926 26.17657,-18.84798 43.43469,-28.52433 24.44353,-13.70509 36.70461,-21.96196 46.61938,-28.2897 -10.54701,-1.6735 -20.51317,-3.09711 -44.00045,-4.21868 -24.55579,-1.17258 -52.32879,-2.22609 -60.99635,-1.50096 -6.22151,0.65313 31.49145,-9.2131 61.24206,-16.69703 24.60411,-6.18929 43.15745,-12.20357 54.50823,-16.06908 -8.20193,-1.9207 -26.73531,-7.20413 -48.36786,-12.57054 -28.26876,-7.01267 -48.38354,-16.28163 -64.64977,-20.57298 -6.63592,-1.75068 34.82285,0.16919 69.54745,1.68833 30.6982,1.34298 49.88873,1.27265 67.04881,0.51106 -19.87787,-16.97587 -33.61172,-30.1503 -47.50887,-41.83592 -22.59346,-18.92859 -35.72797,-30.12893 -51.39853,-44.32444 57.07748,19.68443 115.41986,57.22558 176.75066,90.99682 4.26846,-46.58826 20.94289,-95.60803 42.42341,-128.87143 6.26,-9.69386 9.95751,-11.85332 9.38548,-8.91191 -5.31901,24.91895 -9.50347,47.02667 -10.89461,76.38628 -0.68452,27.75138 2.02543,57.91217 11.25085,86.34273 6.60664,-24.64611 19.87109,-50.68108 33.08043,-70.69225 4.43511,-6.60218 5.60527,-6.69538 3.91355,-0.31161 -2.90414,10.95917 -3.93343,38.57698 -1.95434,55.75029 2.26032,19.61344 5.99895,39.57704 9.50278,52.37678 4.97023,-10.16375 16.06081,-21.55666 21.80323,-27.53011 2.37701,-1.96252 1.64951,-2.82168 3.2421,20.8361 1.37701,20.45497 1.98265,41.89607 7.27885,60.49176 4.33576,15.22343 14.45638,38.02631 16.63291,38.06628 0.61534,0.0115 1.23109,3.0136 1.55848,7.5992 0.5968,8.35766 -1.58203,22.71711 -4.07314,24.78456 -0.72383,0.6007 -1.511,1.33704 -1.7186,1.78214 -0.1964,0.42049 -3.26094,7.54592 -7.24657,15.73765 -3.98563,8.19174 -8.4444,17.78846 -9.90831,21.32603 -2.42892,5.86926 -2.91499,6.45674 -5.55628,6.71532 -3.35157,0.32815 -5.36322,-2.26576 -4.48152,-5.77867 1.50295,-5.98845 -4.86606,-17.32048 -15.43496,-28.96158 -7.0479,-7.76296 -11.88909,-16.19033 -18.10236,-24.80896 -8.12269,-11.26729 -8.43705,-12.01392 -5.42719,-17.91758 1.01074,-1.9825 1.8377,-4.17313 1.8377,-4.86809 -18.17848,-27.87577 -43.00171,-45.29131 -65.63707,-54.39774 -2.15897,-0.82039 -12.80663,-3.78136 -14.23615,-5.1283 -1.04705,-0.98658 -1.09734,-1.7058 -0.24941,-3.56683 1.05564,-2.31686 1.03559,-2.33107 -3.2888,-2.33107 -13.05021,1.05378 -29.40161,12.58756 -32.52592,27.06229 14.08781,7.5286 49.72657,23.36204 78.80287,48.54968 38.2309,33.1179 67.27131,76.27423 77.12833,122.38747 1.39746,6.53772 7.47651,49.23745 0.76994,70.94555 -4.42449,-59.24541 -15.79762,-85.64707 -33.82785,-116.26012 -42.60132,-67.61816 -70.48892,-84.4192 -124.97071,-110.01359 43.84286,26.8995 70.78341,45.77693 98.55689,85.04001 24.3664,36.37516 46.19704,63.67485 52.43179,161.55077 1.41744,22.25203 -0.27681,43.88666 -6.78646,73.42166 -4.28954,19.46228 -15.94926,54.39318 -18.83715,58.30409 -1.58364,2.14466 -1.58364,2.14466 -0.94371,-0.61189 3.62733,-17.23201 13.09232,-52.01244 13.05011,-85.34701 -1.1562,-49.49374 -8.83535,-67.87958 -41.53546,-102.30666 -41.07486,-36.99496 -87.18534,-60.5269 -128.70389,-86.4525 -64.63186,-47.06718 -139.8475,-86.39547 -173.38215,-156.42818 -7.2068,-15.05045 -14.78154,-31.14501 -16.39907,-52.04247 -25.1337,60.72363 -39.39176,78.83192 -80.32927,140.40313 -32.81944,49.36142 -95.211188,104.93467 -118.411318,116.10897 -9.0399497,4.35408 70.74,-85.31609 103.456688,-135.38361 32.83125,-50.24283 58.01695,-84.82976 83.78864,-160.22061 8.04016,-23.52018 3.96808,-28.30324 8.14017,-36.97157 -21.83924,36.6804 -39.29575,106.01739 -21.55823,139.45662 23.92448,41.36871 52.85324,74.49439 88.92066,105.26916 25.17263,25.15281 39.22974,52.69437 44.91832,78.22771 1.76942,7.94205 2.25255,24.90903 0.97621,32.18192 -1.20551,6.86922 -1.8028,6.98841 -2.7996,0.43726 -5.56455,-33.29617 -23.93,-64.13328 -55.24463,-91.47737 -36.8976,-36.75997 -86.74672,-89.46132 -98.69649,-121.59511 -16.57258,-44.56488 -0.98688,-110.54542 24.70138,-144.76507 -63.49764,62.6381 -82.9263,139.05956 -42.96577,209.52718 20.65517,36.42395 44.52514,66.90637 84.10109,103.49699 32.4677,30.62072 58.26999,70.60067 60.7374,113.63629 0.64137,14.10492 -1.2593,21.89176 -4.71474,35.46827 -1.08244,3.47405 -1.17602,3.021 -1.70793,-8.26969 C 287.19756,521.7181 266.35692,492.63411 222.78601,450.78314 183.83683,413.37148 162.60777,395.84672 129.1472,340.83372 83.102932,265.13167 110.0792,157.40543 179.11705,108.06859 59.971332,175.39591 21.896682,256.99508 26.759382,321.80495 c 2.88511,38.45274 13.84717,66.0708 41.90485,102.42954 52.100328,67.5146 126.281688,107.16144 164.666808,176.77328 9.58942,17.39051 18.03777,41.55811 15.24918,80.45585 -0.86114,4.77911 -1.82379,2.82839 -4.04714,-5.33467 C 230.53148,624.16785 198.5588,582.05048 157.07711,546.37114 117.86612,512.64488 99.385522,495.32071 53.816232,446.67804 21.231942,411.89613 -0.12405769,360.37423 5.4231485e-4,315.16963 0.65707231,265.97441 10.483152,227.75239 36.952322,195.32277 87.798452,128.87229 146.48261,101.15679 227.14468,61.00941 244.1756,52.53273 252.53266,45.34679 257.71258,32.5909 262.17678,21.5975 260.20614,14.24728 260.60624,14 c 8.93681,10.40266 9.72128,20.09821 5.61321,34.93411 39.57901,-17.17433 66.70303,-21.00139 96.16952,-22.80539 z m 54.09949,243.24712 c 2.52656,-7.13889 2.52656,-7.13889 0.33027,-10.95418 -2.81267,-4.88598 -6.94265,-13.98562 -8.30863,-21.73287 -2.40421,-13.63567 3.10495,-30.40408 14.36897,-38.71054 9.3959,-6.92885 20.19569,-8.789 33.24468,-6.42093 1.98747,1.64661 0.87803,2.99691 -4.22672,5.14434 -7.67576,2.44004 -15.71483,7.04128 -19.07144,13.32076 0,0.35623 1.7573,1.16968 3.90511,1.80769 9.00556,2.6751 28.03008,12.95765 32.38604,17.5043 2.78381,2.90566 2.49168,4.81421 -0.45517,2.97387 -2.86503,-1.78924 -2.91124,0.22207 -0.0928,4.036 3.71391,5.02559 10.95347,11.84165 11.74096,11.05415 0.36375,-0.36375 0.16568,-2.51468 -0.44013,-4.77983 -1.48021,-5.53425 -1.40742,-8.68637 0.20054,-8.68637 3.83888,1.16279 7.14764,3.09491 11.10708,3.08703 2.04269,-0.004 1.72587,-5.09234 -0.40561,-9.75871 -12.2395,-26.70608 -24.91119,-42.02777 -50.82614,-53.59089 -1.81592,-0.81024 -4.20112,-1.29508 -4.56429,-1.29696 -0.71988,-0.004 -0.24556,1.33336 1.30614,4.57141 0.54453,1.13632 1.08957,2.90763 -1.05909,3.80835 -1.49637,0.62728 -3.69426,0.68846 -24.62351,4.93033 -11.28835,2.28789 -18.64682,2.98923 -12.23062,6.3274 5.57,2.89791 4.99967,4.14329 4.6482,4.96518 -0.74503,1.74224 -5.603,6.31258 -12.45111,13.04512 -6.84812,6.73252 -12.00992,12.51243 -11.67828,13.0138 0.65035,0.98319 5.03827,-0.27715 8.67069,-1.04711 2.98507,-0.63274 3.71505,1.38333 1.83564,5.22592 -5.70723,11.66881 -9.99893,24.76144 -9.01865,25.76637 0.78957,0.80943 1.89791,-0.23092 3.41962,-1.34298 4.68933,-3.42688 5.015,-3.60375 7.32896,1.02442 4.01622,8.0329 10.80325,16.4863 19.74159,23.01402 2.51551,1.83709 3.82803,-2.37271 5.21765,-6.29909 z m 180.74858,-6.20055 c -0.31183,-5.17811 -1.02308,-13.67004 -1.09848,-18.80704 -0.13783,-9.402 -1.51909,-13.27456 -2.37936,-8.1391 -0.93172,15.17631 -0.344,19.80801 1.12243,30.79834 1.25182,9.38299 2.85843,4.50519 2.35541,-3.8522 z m -39.7782,5.90297 c -1.19204,-11.99898 -7.97675,-22.99865 -14.03647,-31.0112 -5.64222,-7.46049 -23.49786,-19.63432 -23.30601,-15.85792 5.47779,15.23524 15.25335,29.59541 25.77576,39.56986 9.06297,8.57526 12.54851,10.77484 11.56672,7.29926 z m 3.56376,-54.21217 c -0.9857,-21.06699 -2.55251,-35.38206 -3.92252,-35.83678 -1.87715,-0.62306 -1.47251,22.24022 0.64527,36.45991 1.72255,11.56605 2.28816,13.84876 3.43162,13.84876 0.28771,0 0.21822,-6.51235 -0.15449,-14.47189 z m -42.69287,-34.6866 c -3.58397,-19.09864 -2.25039,-37.26569 -5.33446,-55.36298 -3.55982,-0.40389 -2.888,45.10988 3.4307,64.2589 2.88329,7.74528 3.27669,3.17748 1.90376,-8.89592 z"
     id="path74"
     inkscape:connector-curvature="0"
     sodipodi:nodetypes="cscsccssssccssscccssssssssscsccsccsssscscssssscssscscscscsccccsccsscccscssssssccsscscsssscsscccccssccccscsssscccscccscscccssscsssccscccssccccssccsccscscsscsssssssssssccccccccccccsccccccccccccc" />
</svg>
